<svg xmlns="http://www.w3.org/2000/svg" version="1.0" viewBox="0 0 270 270"><path d="M183 19.9c-1.9.4-6 2-9 3.7l-5.5 2.9v5.2c.1 5 0 5.1-3.7 6.8-6.8 3-14.2 14-13.6 20.3.3 3.2 0 3.7-2.1 4-2.9.5-11.4 7-15.2 11.9-4.7 5.8-8.2 14.1-7.6 17.9.5 2.7.2 3.4-1.4 3.9-1 .4-3.7 3.3-5.9 6.6-2.3 3.2-4.5 5.9-4.9 5.9-.5 0-1.1-1.4-1.5-3.2-.8-3.9-8.6-11.5-13-12.6-2.5-.7-3.2-1.4-3.4-3.9-.2-1.7-1.1-3.8-2-4.6-3-2.7-11.4-6.7-14.1-6.7-1.9 0-3-.9-4.1-3.3-1.3-2.7-2.2-3.3-6.5-4.1-2.7-.4-6.4-1.5-8.2-2.2-3.9-1.8-4.8-1.8-6.3.1-1 1.3-1 1.9.5 3.5 1 1.1 2.7 2 3.7 2C61.4 74 72 82.9 72 84.7c0 2.3 7 9.1 11.5 11.3 2.7 1.3 4.7 3.1 5.5 5 .7 1.7 3.8 5.4 7 8.3l5.8 5.4-3.4 2.7c-2.2 1.7-3.4 3.5-3.4 5.1 0 2.1-.5 2.5-3 2.5-6 0-20.8 7.4-21.7 11-.3 1.3-1.7 1.9-5.1 2.2-5.8.6-15.9 5.4-16.7 7.8-.4 1.2-2 2-4.8 2.4-4.9.8-11.3 5.5-12.8 9.4-.7 1.9-.6 2.9.8 4.5 1.5 1.6 2.6 1.8 7.6 1.3 6.7-.7 11-2.7 13.3-6.1 1.2-1.8 2.5-2.5 4.8-2.5 3.7 0 17.1-6.1 17.9-8.2.3-.9 2.5-1.8 5-2.1 2.5-.4 7-1.8 10-3.2 3.1-1.4 6-2.5 6.5-2.5 1.5 0 5.2-4.5 5.2-6.3 0-1.4 1-1.7 4.8-1.7 7.5 0 15.3-3 21.6-8.5 3.1-2.6 5.6-5.1 5.6-5.5 0-.5 1.2-2.2 2.6-4 2.6-3.1 2.9-6.2.9-11.3-.6-1.3-.2-1.7 1.7-1.7 1.3 0 4.7-1.6 7.5-3.5l5.2-3.5 8.7 4.5c7.1 3.7 9.6 4.5 13.9 4.5 4.7 0 5.5.3 6.1 2.2.9 3 9.9 14.4 12 15.2.9.3 2.4.6 3.4.6 1.4 0 2.1 1 2.5 3.4.7 3.4 6.2 10.9 10.4 14.1 1.3 1 3.8 2.1 5.5 2.4 2.6.6 3.2 1.2 3.7 4.3.6 3.7 5.2 10.8 7 10.8.5 0 .7 1.6.4 3.7-.5 3-.1 4.4 1.8 6.7 2.7 3.3 7.3 3.9 9.4 1 1.9-2.6 1.6-7.8-.6-9.8-1.1-1-1.6-2.5-1.4-4.1.8-3.9-2.4-12-5.3-13.4-1.4-.6-3.1-1.1-3.8-1.1-.9 0-1.4-1.2-1.4-3.5 0-5.4-5.7-14.3-10.7-16.6-2.2-1-4.7-1.9-5.6-1.9-1 0-1.9-1.2-2.3-3.2-.3-1.7-2.5-6.2-4.8-9.9-4.7-7.6-7.6-9.5-13.6-8.6-3.5.4-3.9.2-4.9-2.4-1.4-3.6-9.2-7.5-17-8.5-2.9-.3-5.3-.8-5.3-1.1 0-.2.6-1.4 1.4-2.6 2.2-3.5 2.7-8.2 1.1-10.3-2.1-2.8-1.9-3.1 2.5-3.8 7.5-1.2 17-13.8 17-22.6 0-3 .5-4.2 1.8-4.7.9-.3 2.7-1.5 3.8-2.5 1.4-1.3 2.4-1.6 2.9-.9.9 1.6 6.1 1.3 7.5-.4.7-.9 1-2.5.6-4.1-.6-2.3-1.1-2.6-4.2-2.2-3.5.4-3.6.3-3-2.6.4-2 .1-3.5-1-4.8-1.8-1.9-2-1.9-7.4-.9zm6 3.3c0 .7-.6 3.5-1.3 6.3-1.4 5.4-4.5 8-8.2 6.9-1.1-.3-3.4-.5-5.1-.5-3.2.1-4.3-1.5-4.4-6 0-1.4 6.8-5.4 12-7.2 2.9-1 7-.7 7 .5zm7 8.2c0 1.8-1.6 2.9-3 2.1-1.3-.8-.1-3.5 1.6-3.5.8 0 1.4.6 1.4 1.4zm-17.2 8.8c1.9 1.9 1.4 4.6-2 10.9-3.8 7.2-8.5 11.6-13.5 12.5-8.3 1.6-11.7-4.8-7-12.9 2.9-4.9 7.3-9.6 10.2-10.8 3.1-1.2 11-1 12.3.3zm-20.8 27c4.4 4.8 3.6 9.2-3.7 18.7-4.2 5.4-13.4 12.1-16.7 12.1-3.7 0-8.6-3.7-8.6-6.5 0-6.8 11.6-22.7 18.5-25.6 3.9-1.5 8.3-1 10.5 1.3zM61 71c0 .5-.7 1-1.5 1s-1.5-.5-1.5-1c0-.6.7-1 1.5-1s1.5.4 1.5 1zm11.8 3.6c2.6 1.7 2.8 2.7.7 4.4-1.3 1.1-2.1.8-5-2-1.9-1.9-3.5-3.8-3.5-4.3 0-1.2 4.8 0 7.8 1.9zm13.1 8.1C94.4 87 96 91.5 90 94c-3.5 1.5-5.8.4-11.7-5.3-4.7-4.5-5.2-6.1-2.5-7.6 2.6-1.6 4.2-1.3 10.1 1.6zm84.1 4.4c6.2 1.6 10 4.5 10 7.8 0 4.1-2.2 5.5-7.3 4.8-3.9-.6-17-6.8-18.2-8.7-.3-.4.9-2 2.6-3.5 3.3-2.7 4-2.7 12.9-.4zm-66.8 11.3c3.7 2.9 7.8 8.6 7.8 11 0 .3-1.4 1.3-3 2.1-2.9 1.5-3.3 1.5-5.8-.4C98 108.2 91 100.3 91 98.6c0-1.8 2.7-3.5 5.6-3.6 1.2 0 4.1 1.5 6.6 3.4zm89.1-1.3c2.7 1.2 10.7 13.6 10.7 16.6 0 2.5-4.9 4.8-7.9 3.8-2.2-.7-7.3-6.5-11.4-13.1-2.4-3.9-2.5-4.3-.9-5.7 1.5-1.3 3.5-2.1 6.4-2.6.4 0 1.8.4 3.1 1zM132 99.5c1.8.9 3.2 2.6 3.6 4.3.3 1.5.7 3.2.9 3.9.2.6-.5 1.9-1.5 2.8-1 .9-2.3 2.9-3 4.4-3.5 8.7-26 17.5-32.2 12.7-2.5-1.8-2.2-5.8.5-8.4 2.5-2.4 10.4-6.1 12.9-6.2 1 0 4.2-3.3 7.3-7.5 3-4.1 6.2-7.5 7.1-7.5.8 0 2.8.7 4.4 1.5zm81.1 20.8c2.2 1.3 7.3 8.9 8.4 12.5 1.5 5.1-4.1 6.8-10.2 3.1-7.1-4.4-13-15.6-9-17.3 1.8-.8 8.5.2 10.8 1.7zm-115.2 9.8c1.6 1.5 1.9 2.4 1.2 3.7-1.2 2.3-16.3 8.5-20.2 8.4-3.2-.1-7-3.7-6.2-5.9.4-1.1 8.6-5.4 15.2-8 3.3-1.3 7.5-.5 10 1.8zm-27.5 12c1.4 1.1 2.6 2.5 2.6 3 0 1.1-14 7.9-16.3 7.9-2 0-6-4.7-5.4-6.3.5-1.3 12.6-6.5 15.3-6.6.6-.1 2.3.8 3.8 2zm156.9-1c2.5 1.1 6 8.9 5.1 11.4-1.6 4-8.6-.4-11.7-7.2-2-4.5 1.2-6.7 6.6-4.2zM49.6 151.7c2.1 2.8 1.7 4.1-2.3 6.7-3.3 2.1-7.9 3.1-13 2.7-2.5-.2-1.2-3 2.8-6.5 5.5-4.6 10.3-5.8 12.5-2.9zm184.2 6.5c1.8 1.8 1.5 6.8-.5 7.5-2.2.9-6.3-3.9-5.6-6.7.6-2.2 4.2-2.7 6.1-.8z"/><path d="M136.2 54.2c-2.1 2.1-1.5 5.7 1.2 6.4 5.2 1.3 9.2-1.8 7-5.4-1.3-2.1-6.4-2.8-8.2-1zm5.4 1.9c1 1.7-1.3 3.6-2.7 2.2-1.2-1.2-.4-3.3 1.1-3.3.5 0 1.2.5 1.6 1.1zm26.2 51c-4.5 2.6.6 7.9 5.7 5.9 2.7-1 3.3-3.8 1.3-5.8-1.5-1.5-4.7-1.5-7-.1zm5 2.7c.2.7-.6 1.2-1.7 1.2-2.1 0-2.7-1.1-1.4-2.4.9-.9 2.6-.2 3.1 1.2zm35.6-1.4c-1.6 4.2 1.6 7.3 5.8 5.7 2.3-.9 2.6-1.4 1.9-3.8-.6-2.2-1.4-2.9-3.9-3.1-2.2-.2-3.4.2-3.8 1.2zm5.2 1.7c.8 1.4-1.8 3.1-3 1.9-.9-.9 0-3 1.4-3 .5 0 1.2.5 1.6 1.1zM69 121.8c-4 3.2.4 8.8 5.4 6.9 2.4-.9 2.6-5.6.2-7.2-2.6-1.9-2.9-1.9-5.6.3zm4.6 2.3c.3.6.2 1.5-.2 1.9-1.2 1.2-3.8-.5-3-1.9.9-1.4 2.3-1.4 3.2 0zm30.7 14.1c-.6.7-1.3 2.6-1.5 4.2-.3 2.6.1 3.1 3.2 4.1 4 1.4 8.5.3 9.5-2.3 1-2.7-2.8-6.7-6.7-7-2-.2-3.9.3-4.5 1zm7.3 2.9c1.6 1.7 1.6 2.2.4 2.9-2.1 1.3-3.3 1.2-5.5-.4-1.6-1.2-1.7-1.6-.6-3 1.8-2.1 3.4-2 5.7.5zm109.6 29.1c-2.9 2.9-.2 6.8 4.8 6.8 2.8 0 4.8-4.3 3-6.5-1.5-1.8-6.1-2-7.8-.3zm5.8 2.2c0 2-1.9 3.1-3.2 1.8-.6-.6-.7-1.5-.4-2.1 1-1.6 3.6-1.3 3.6.3zM41.4 190.3c-.2.7-.4 5.4-.2 10.3.3 7.5.6 8.9 2.1 9.2 1.5.3 1.7-.6 1.7-8.2V193h6v8.5c0 7.9.1 8.5 2 8.5 2 0 2.1-.5 1.8-10.3l-.3-10.2-6.3-.3c-4.6-.2-6.4.1-6.8 1.1zm16.6-.8c-.1.3-.1 4.9-.1 10.2-.1 8.2.2 9.9 1.5 10.1 1.2.3 1.6-.5 1.6-3.2 0-2.9.4-3.6 2-3.6 2.9 0 6-3.6 6-7 0-4.1-3.1-7-7.5-7-1.9 0-3.5.2-3.5.5zm7 3.9c0 .2.3 1.1.6 1.9.5 1.5-2 4.7-3.7 4.7-.5 0-.9-1.6-.9-3.5 0-2.8.4-3.5 2-3.5 1.1 0 2 .2 2 .4zm9.1-3c-3.1 1.7-3.9 3.8-4 9.9-.1 3.8.4 5.3 2.4 7.2 5.6 5.7 12.5 1.5 12.5-7.6 0-6.2-.6-7.7-4.1-9.4-3.4-1.8-3.7-1.8-6.8-.1zm6.3 4.8c3.5 4.9.1 13.2-4.4 10.8-2.7-1.5-3.6-7.4-1.6-10.5 2-3.1 4-3.2 6-.3zm5.2-5.4c-1.6 1.6-.3 3.2 2.5 3.2h3l-.2 8.2c-.2 7.4 0 8.3 1.6 8.3s1.8-.9 1.6-8.3l-.2-8.2H97c2.5 0 3.1-.4 2.8-1.7-.3-1.5-1.5-1.8-7-2-3.7 0-6.9.2-7.2.5zm15.2 7.6c-.1 4.7-.2 9.4-.2 10.3-.1 1 .7 1.9 1.7 2.1 1.3.3 2.5-1.3 4.7-6l3-6.3v6.2c0 5.7.2 6.3 2 6.3 2 0 2.1-.5 1.8-10.3-.4-12.5-1.7-13.3-6.5-3.9l-3.2 6.3-.3-6.2c-.2-3.9-.8-6.4-1.5-6.7-1-.3-1.3 1.9-1.5 8.2zm16.2-8c-.1.4-.1 5-.1 10.3-.1 8.2.2 9.9 1.5 10.1 1.4.3 1.6-.9 1.6-8.2V193h4.1c3.3 0 4-.3 3.7-1.8-.2-1.3-1.5-1.8-5.6-2-2.8-.2-5.2-.1-5.2.2zm11.8 7.1c-.1 4.1-.2 8.7-.2 10.2-.1 1.9.5 2.9 1.7 3.1 1.4.3 1.7-.4 1.7-3.2 0-2.9.4-3.6 2-3.6 2.9 0 6-3.6 6-7 0-4.1-3.1-7-7.5-7H129l-.2 7.5zm7.2-3.1c0 .2.3 1.1.6 1.9.5 1.5-2 4.7-3.7 4.7-.5 0-.9-1.6-.9-3.5 0-2.8.4-3.5 2-3.5 1.1 0 2 .2 2 .4zm6-4.2c0 .1-.1 4.8-.2 10.3-.2 8.7 0 10 1.5 10.3 1.3.3 2.5-1.4 4.7-6l3-6.3v6.2c0 5.7.2 6.3 2 6.3 2 0 2.1-.5 1.8-10.3-.4-12.5-1.7-13.3-6.5-3.9l-3.2 6.3-.3-6.2c-.2-3.9-.8-6.4-1.5-6.7-.7-.2-1.3-.2-1.3 0zm16 .3c-.1.3-.1 4.9-.1 10.2l-.1 9.8 4.4.3c5.6.4 8-1.4 8.1-6 .1-4.7-1.7-6.8-5.9-6.8-2.7 0-3.4-.4-3.4-2 0-1.7.7-2 3.9-2 3.6 0 5.9-1.8 4.4-3.4-.8-.7-11.3-.8-11.3-.1zm8.7 12.1c.8 2.2-.9 4.8-3.6 5.2-1.8.3-2.1-.1-2.1-3.2 0-3.2.3-3.6 2.5-3.6 1.5 0 2.8.7 3.2 1.6zm6-12c-.4.4-.7 5.2-.7 10.6 0 9.3.1 9.8 2.1 9.8 1.9 0 2.1-.5 1.7-4-.2-2.2-.1-4 .2-4 .3.1 1.7 1.9 3.2 4 1.7 2.4 3.6 4 4.8 4 2.7 0 2.5-.5-1.1-5.1-3.4-4.4-3.4-7.4.1-10.9 2.2-2.2 2.5-3.6 1-4.5-1.8-1.1-4.8 1.5-6.2 5.2l-1.3 3.8-.5-4.4c-.5-4.2-1.8-6-3.3-4.5z"/><path d="M189.5 191.3c-5.2 4.4-3.9 16.8 1.9 18.3 6.8 1.7 11.4-3.8 10.3-12.1-.6-4.3-4.4-8.5-7.7-8.5-1 0-3.1 1-4.5 2.3zm7.5 3.6c1.7 3.3 1.2 8.6-1 10.6-1.9 1.7-2.1 1.7-4 0-3.6-3.3-2.1-12.5 2-12.5 1.1 0 2.4.9 3 1.9zm6.9-5.2v19.8l3.2.3c7.4.8 11.4-3.3 8.8-8.8-.7-1.4-1.1-4.2-1-6.2.2-2.8-.2-3.9-1.8-4.7-2.2-1.2-9.1-1.5-9.2-.4zm7.8 4.9c.6 1.6-1.2 3.4-3.4 3.4-.7 0-1.3-1.1-1.3-2.5 0-1.8.5-2.5 2-2.5 1.1 0 2.3.7 2.7 1.6zm1.1 8.8c.4 2-1.3 3.6-4 3.6-1.3 0-1.8-.8-1.8-3.1 0-2.7.3-3 2.7-2.7 1.8.2 2.9 1 3.1 2.2zm4.7-13.5c-.3.5.2 1.6 1 2.4 1.7 1.8 2.2 14.7.5 14.7-.5 0-1 .7-1 1.6 0 1.1.9 1.4 3.7 1.2 3.5-.3 6.1-2.8 2.9-2.8-2.4 0-2.3-12.8.1-14.5.9-.7 1.3-1.7.9-2.3-.9-1.4-7.2-1.6-8.1-.3zM70.7 218.6c-.4.4-.7 5.2-.7 10.6 0 8.9.2 9.9 1.8 9.6 1.5-.3 1.7-1.5 1.5-8.6l-.1-8.2h7l-.3 8.2c-.4 7.3-.2 8.3 1.4 8.6 1.6.3 1.7-.5 1.5-10l-.3-10.3-5.5-.3c-3.1-.2-5.9 0-6.3.4zm15.3-.1c-.1.3-.1 4.9-.1 10.2-.1 8.2.2 9.9 1.5 10.1 1.2.3 1.6-.5 1.6-3.2 0-2.9.4-3.6 2-3.6 2.9 0 6-3.6 6-7 0-4.1-3.1-7-7.5-7-1.9 0-3.5.2-3.5.5zm7 3.9c0 .2.3 1.1.6 1.9.5 1.5-2 4.7-3.7 4.7-.5 0-.9-1.6-.9-3.5 0-2.8.4-3.5 2-3.5 1.1 0 2 .2 2 .4zm6-4.2c0 .2-.1 4.8-.3 10.3l-.2 10 5.8.3c5.2.3 5.8.1 5.5-1.5-.3-1.4-1.2-1.7-4.1-1.5-3.5.3-3.7.1-3.7-2.8 0-2.8.2-3 4.1-3 3.3 0 4-.3 3.7-1.8-.3-1.3-1.2-1.6-4.1-1.4-3.4.3-3.7.1-3.7-2.3 0-2.3.4-2.5 4.1-2.5 3.3 0 4-.3 3.7-1.8-.2-1.3-1.5-1.8-5.6-2-2.8-.2-5.2-.2-5.2 0zm13.7.4c-.4.4-.7 5.2-.7 10.6 0 9.1.1 9.8 2 9.8 1.8 0 2-.7 2-8.5V222h6v8.5c0 6.9.3 8.5 1.5 8.5s1.5-1.7 1.5-9.5c0-5.2.1-9.8.3-10.3.3-.9-11.7-1.5-12.6-.6zm19.5.6c-.5.7-2 4.9-3.2 9.3-1.2 4.3-2.4 8.5-2.7 9.2-.3.8.3 1.3 1.6 1.3 1.4 0 2.3-.8 2.7-2.5.5-1.9 1.3-2.5 3.4-2.5 2.1 0 2.9.6 3.4 2.5.4 1.7 1.3 2.5 2.7 2.5 1.3 0 1.9-.5 1.6-1.3-.3-.7-1.5-4.9-2.7-9.2-2.2-7.8-3.5-10.5-5-10.5-.4 0-1.2.6-1.8 1.2zm3.3 9.5c.5 1.9.3 2.3-1.5 2.3-1.6 0-2-.4-1.6-1.6.3-.9.6-2.3.6-3.2 0-2.1 1.5-.5 2.5 2.5zm8.2-10c-.4.3-.7 5.1-.7 10.5 0 8.9.2 9.9 1.8 9.6 1.2-.3 1.6-1.2 1.4-3.6-.2-2.8.1-3.2 2.1-3.2 5.5 0 8-9.3 3.5-12.4-2.3-1.6-6.9-2.1-8.1-.9zm7 4.9c.8 2-.8 4.8-3.1 5.2-1.2.3-1.6-.4-1.6-3.2 0-3 .4-3.6 2-3.6 1.1 0 2.3.7 2.7 1.6zm9-4.9c-.7 1.3-5.7 18-5.7 19.2 0 2.2 3.9 1.1 4.2-1.2.2-1.7 1-2.2 3.3-2.2s3.1.5 3.3 2.2c.2 1.5 1 2.3 2.3 2.3 2.5 0 2.4-.8-.9-11.5-1.9-5.9-3.4-9.1-4.4-9.3-.9-.2-1.8.1-2.1.5zm3.2 11c.1.7-.6 1.3-1.5 1.3-1.2 0-1.5-.6-1-2.3.3-1.2.6-2.9.7-3.7.1-1.5 1.6 2.4 1.8 4.7zm5.7-10.9c-1.6 1.6-.3 3.2 2.5 3.2h3l-.2 8.2c-.2 7.4 0 8.3 1.6 8.3s1.8-.9 1.6-8.3l-.2-8.2h3.1c2.5 0 3.1-.4 2.8-1.7-.3-1.5-1.5-1.8-7-2-3.7 0-6.9.2-7.2.5zm15.2 7.6c-.1 4.7-.2 9.4-.2 10.3-.1 1 .7 1.9 1.7 2.1 1.3.3 2.5-1.3 4.7-6l3-6.3v6.2c0 5.7.2 6.3 2 6.3 2 0 2.1-.5 1.8-10.3-.4-12.5-1.7-13.3-6.5-3.9l-3.2 6.3-.3-6.2c-.2-3.9-.8-6.4-1.5-6.7-1-.3-1.3 1.9-1.5 8.2z"/></svg>