<svg xmlns="http://www.w3.org/2000/svg" xml:space="preserve" viewBox="0 0 800 800"><path fill="#fff" d="M0 0h800v800H0z"/><path fill="#033" d="M87.715 267.805c-.075.076.038.075 0 0-.005.006.006.012 0 0z"/><path fill="#033" d="M87.721 267.84c0-.116.002.043 0 0 0-.011 0 0 0 0z"/><path fill="#033" stroke="#033" stroke-miterlimit="10" stroke-width=".5875" d="M87.727 267.846c0 .046-.312.031 0 0 0 .007 0 0 0 0z"/><path fill="#033" d="M104.617 94.085c-.354-.341-.529-.553-.529-.564.07-.036.246.159.529.564z"/><path fill="#002221" d="M213.606 221.33c15.837 13.981 32.575 18.284 57.667 20.868 13.004 21.702-5.305 36.894-21.797 62.79-3.498 5.499-6.925 11.486-9.945 18.117-2.574 5.639-.454 9.793 3.043 10.741 2.164.584 4.861-.056 7.293-2.337 22.777-21.338 43.1-22.414 62.424-23.778 19.72-1.387 39.195 5.473 54.559 12.519 9.902 4.541 9.574-3.727 4.488-9.961-4.371-5.358-8.412-11.217-11.301-17.517-3.619-7.894-5.443-22.284-3.829-31.492 0 0 3.388-28.834 5.769-48.004 2.873-23.132-2.398-46.201-13.172-67.359-16.591-32.576-46.237-60.623-79.334-77.403-5.207-2.64-9.422 1.133-6.691 5.595 6.837 11.167 11.582 23.773 13.668 37.299-23.65 3.701-41.889 26.169-54.553 44.146-4.208 5.969-22.507 36.493-22.507 36.493-3.931 11.117 6.018 22.043 14.218 29.283zm234.705 67.353c-.026-26.221 21.21-47.499 47.431-47.524 26.224-.026 47.499 21.209 47.525 47.43.013 13.352-5.492 25.412-14.353 34.049 14.133 13.821 24.251 25.817 39.713 45.199 9.288 11.639 32.371 54.537 37.587 69.133 10.419 29.152 16.106 60.563 16.14 93.299.064 64.68-21.961 124.218-58.955 171.485-15.902 20.319-22.887 13.803-11-9.171 19.819-38.288 30.991-81.77 30.945-127.863-.074-74.047-21.265-149.769-75.175-192.231-49.072-38.652-55.739-60.188-58.03-70.811-.906-4.199-1.823-8.487-1.828-12.995z"/><path fill="#002221" d="M269.66 331.281c13.475-7.607 29.03-11.96 45.604-11.977 4.089-.004 8.111.258 12.059.765 18.086 1.846 35.617 6.628 52.032 13.953 20.269 9.048 39.272 22.93 56.905 36.395 32.496 24.809 59.919 56.277 79.916 91.945 21.273 37.942 33.454 80.473 38.693 123.519 4.57 37.514 2.406 79.671-23.764 112.304-24.854 30.994-68.131 38.2-101.771 27.016-24.979-8.305-48.557-41.717-48.803-43.345 2.262 13.586-6.443 27.384-19.32 31.895-14.057 4.925-29.774-2.909-35.094-16.652-5.122-13.238.262-28.04 12.322-35.274 3.258-1.955 6.234-2.383 9.859-3.005 1.965-.334 12.244-29.77.381-67.512-6.654-21.172-20.274-44.953-46.236-67.681-1.397-1.224-2.83-2.501-4.281-3.806l-35.498-27.466c-25.672-16.635-42.673-45.519-42.707-78.388-.035-35.836 20.11-66.978 49.703-82.686z"/><path fill="#fff" d="M368.944 545.124c-21.325-37.644-29.726-62.583-14.907-81.614 8.203-10.535 25.278-11.069 38.651.89 13.448 11.36 23.915 35.821 22.734 63.268-.497 27.839-10.81 50.543-18.413 65.528-2.565 4.851-4.554 8.428-6.057 11.062-3.183 5.577-3.557 5.278-3.896-.588-.148-2.553-.012-5.897-.912-9.965-5.037-22.744-5.498-27.924-17.2-48.581z"/></svg>