<svg xmlns="http://www.w3.org/2000/svg" xml:space="preserve" viewBox="0 0 800 800"><path fill="#fff" d="M0 1h800v800H0z"/><circle cx="527.853" cy="360.794" r="214.798" fill="#fff"/><path fill="#033" d="M527.852 583.592c-59.512 0-115.461-23.175-157.542-65.256-42.08-42.081-65.255-98.03-65.255-157.542s23.175-115.462 65.255-157.543c42.081-42.081 98.03-65.256 157.542-65.256s115.461 23.175 157.543 65.256c42.081 42.082 65.257 98.031 65.257 157.543 0 59.511-23.176 115.46-65.257 157.542-42.082 42.081-98.032 65.256-157.543 65.256zm0-429.597c-114.028 0-206.797 92.77-206.797 206.799 0 114.029 92.769 206.797 206.797 206.797 114.03 0 206.8-92.769 206.8-206.797-.001-114.029-92.77-206.799-206.8-206.799z"/><path fill="#699" d="M693.154 443.135c0 7.54-2.831 13.242-5.387 19.337-5.228 12.463-20.502 22.223-31.727 22.223-8.143 0-15.535-1.677-20.975-8.858-5.73-7.563-13.401-20.927-13.401-32.701 0-12.348 8.025-23.438 14.254-31.051 5.349-6.537 12.396-7.772 20.122-7.772 7.809 0 20.398-.047 25.77 6.619 6.128 7.603 11.344 19.968 11.344 32.203z"/><path fill="#002221" d="M656.041 488.194c-7.451 0-16.887-1.164-23.765-10.245-3.31-4.368-14.111-19.79-14.111-34.814 0-13.188 8.04-24.611 15.045-33.174 6.529-7.979 15.205-8.961 22.831-8.961h.327c8.147 0 21.784-.094 28.168 7.828 7.361 9.139 12.118 22.593 12.118 34.354 0 7.434-2.453 13.151-4.825 18.704-.278.651-.558 1.293-.834 1.951-5.541 13.21-21.548 24.357-34.954 24.357zm0-80.194c-7.266 0-13.007 1.01-17.413 6.395-6.269 7.66-13.463 17.813-13.463 28.787 0 10.203 6.556 22.468 12.691 30.563 3.967 5.238 9.405 7.461 18.185 7.461 9.478 0 23.68-8.592 28.499-20.082.282-.673.567-1.344.852-2.01 2.192-5.13 4.263-9.978 4.263-15.978 0-12.467-5.693-23.864-10.569-29.915-4.282-5.315-15.822-5.222-22.717-5.222h-.328z"/><path fill="#699" d="M626.565 219.071c0 7.06-2.832 12.399-5.388 18.107-5.229 11.67-20.499 20.808-31.726 20.808-8.145 0-15.536-1.571-20.976-8.295-5.73-7.082-13.401-19.597-13.401-30.621 0-11.563 8.025-21.946 14.255-29.075 5.349-6.122 12.396-7.278 20.122-7.278 7.808 0 20.398-.043 25.768 6.197 6.129 7.122 11.346 18.701 11.346 30.157z"/><path fill="#002221" d="M589.452 261.486c-7.419 0-16.817-1.09-23.696-9.594-3.327-4.11-14.181-18.626-14.181-32.822 0-12.477 8.08-23.432 15.119-31.487 6.525-7.468 15.166-8.584 22.758-8.584h.324c8.123 0 21.718.109 28.097 7.523 7.406 8.607 12.192 21.395 12.192 32.494 0 7.047-2.47 12.487-4.858 17.722-.278.612-.559 1.238-.835 1.856-5.557 12.402-21.548 22.892-34.92 22.892zm0-75.486c-7.307 0-13.076 1.143-17.486 6.19-6.234 7.134-13.391 16.679-13.391 26.827 0 9.452 6.521 20.905 12.622 28.446 3.968 4.904 9.427 7.01 18.255 7.01 9.505 0 23.727-8.007 28.531-18.732.283-.632.569-1.256.855-1.883 2.174-4.764 4.227-9.263 4.227-14.788 0-11.568-5.655-22.354-10.499-27.982-4.284-4.979-16.322-5.087-22.79-5.087h-.324z"/><path fill="#699" d="M442.632 365.92c0 7.06-2.832 12.4-5.388 18.108-5.229 11.67-20.5 20.807-31.726 20.807-8.144 0-15.536-1.57-20.976-8.294-5.73-7.082-13.401-19.596-13.401-30.621 0-11.563 8.026-21.946 14.255-29.074 5.35-6.122 12.396-7.279 20.122-7.279 7.808 0 20.398-.043 25.769 6.196 6.127 7.122 11.345 18.702 11.345 30.157z"/><path fill="#002221" d="M405.519 408.335c-7.42 0-16.818-1.09-23.696-9.593-3.327-4.111-14.181-18.628-14.181-32.822 0-12.474 8.08-23.354 15.119-31.411 6.526-7.469 15.167-8.51 22.758-8.51h.321c8.123 0 21.72.034 28.1 7.447 7.407 8.608 12.192 21.358 12.192 32.457 0 7.049-2.47 12.471-4.858 17.707-.279.611-.559 1.228-.835 1.844-6.131 13.685-23.006 22.881-34.92 22.881zm0-75.335c-7.306 0-13.076 1.068-17.486 6.116-6.234 7.135-13.391 16.643-13.391 26.788 0 9.452 6.521 20.887 12.622 28.428 3.967 4.903 9.427 7 18.255 7 9.505 0 23.727-8.011 28.531-18.736.283-.631.569-1.258.854-1.884 2.174-4.765 4.228-9.265 4.228-14.792 0-11.568-5.655-22.279-10.498-27.907-4.285-4.979-16.326-5.013-22.794-5.013h-.321z"/><path fill="#699" d="M445.13 298.045c2.385 6.166 1.534 11.856 1.063 17.767-.961 12.089-12.202 25.611-22.732 29.684-7.641 2.957-15.105 4.268-22.481.369-7.769-4.105-19.192-12.251-22.915-21.878-3.907-10.097.115-22.079 3.551-30.563 2.949-7.288 9.171-10.855 16.419-13.66 7.325-2.832 19.122-7.438 26.266-3.938 8.153 3.995 16.96 12.215 20.829 22.219z"/><path fill="#002221" d="M410.788 351.789c-4.041 0-7.892-.952-11.444-2.83-4.533-2.395-19.7-11.185-24.544-23.71-4.265-11.022-.332-23.5 3.571-33.139 3.59-8.871 11.316-12.87 18.4-15.611l.156-.061c5.534-2.14 13.896-5.374 21.131-5.374 2.973 0 5.591.544 7.781 1.617 9.919 4.86 18.772 14.32 22.555 24.1 2.418 6.253 1.925 11.927 1.448 17.415-.055.629-.11 1.26-.16 1.893-1.129 14.204-13.817 28.361-24.959 32.67-5.339 2.068-9.767 3.03-13.935 3.03zm7.271-73.724c-5.928 0-13.558 2.95-18.606 4.902l-.156.061c-5.972 2.311-11.854 5.329-14.437 11.708-3.419 8.444-6.91 19.255-3.531 27.987 3.153 8.153 13.063 15.701 21.286 20.046 2.57 1.359 5.244 2.019 8.174 2.019 3.275 0 6.901-.813 11.41-2.557 8.953-3.463 19.625-15.617 20.506-26.697.052-.651.108-1.298.164-1.944.446-5.121.83-9.544-1.003-14.283-3.866-9.997-12.708-17.204-19.105-20.339-1.224-.598-2.806-.903-4.702-.903z"/><path fill="#699" d="M548.047 282.257c-6.175 10.993-13.306 9.181-21.471 11.767-12.338 3.905-23.581 8.001-34.774.073 0 0-6.912-5.862-7.737-14.267-.871-8.854-3.548-24.87 2.228-34.276 6.055-9.864 19.486-13.262 28.196-16.288 7.481-2.598 9.789.51 19.788.72 7.164.151 16.429 12.914 17.45 20.871 1.166 9.083 1.935 21.4-3.68 31.4z"/><path fill="#002221" d="M505.966 301.936c-5.935 0-11.192-1.681-16.076-5.14l-.228-.176c-.323-.275-7.944-6.839-8.89-16.466-.099-1.008-.222-2.111-.354-3.288-1.055-9.459-2.648-23.753 3.055-33.042 5.972-9.729 17.96-13.701 26.714-16.601 1.124-.372 2.202-.729 3.216-1.082 2.384-.828 4.492-1.213 6.634-1.213 2.056 0 3.883.356 5.817.734 2.259.441 4.818.94 8.491 1.018 9.406.198 19.53 14.947 20.661 23.757 1.273 9.921 1.962 22.688-4.076 33.439-5.419 9.648-11.78 10.863-17.932 12.038-1.777.339-3.615.69-5.424 1.264l-1.58.502c-6.874 2.188-13.368 4.256-20.028 4.256zm-12.111-10.438c3.734 2.608 7.587 3.823 12.11 3.823 5.633 0 11.65-1.916 18.022-3.945l1.59-.505c2.181-.691 4.214-1.079 6.18-1.454 5.511-1.053 9.492-1.813 13.405-8.779 5.087-9.06 4.427-20.449 3.283-29.358-.915-7.127-9.432-17.885-14.239-17.986-4.242-.089-7.224-.671-9.619-1.138-1.752-.342-3.135-.612-4.551-.612-1.381 0-2.799.27-4.464.848-1.042.362-2.15.729-3.306 1.112-8.22 2.723-18.448 6.111-23.157 13.782-4.514 7.353-3.071 20.288-2.117 28.848.135 1.207.261 2.339.363 3.374.631 6.42 5.771 11.324 6.5 11.99z"/><path fill="#699" d="M553.15 347.875c0 7.54-2.831 13.242-5.389 19.337-5.226 12.464-20.499 22.223-31.725 22.223-8.145 0-15.537-1.679-20.977-8.857-5.729-7.563-13.399-20.93-13.399-32.703 0-12.347 8.025-23.437 14.252-31.049 5.35-6.538 12.398-7.774 20.124-7.774 7.807 0 20.398-.046 25.768 6.618 6.128 7.605 11.346 19.972 11.346 32.205z"/><path fill="#002221" d="M516.037 392.936c-7.451 0-16.887-1.165-23.767-10.244-3.31-4.37-14.109-19.794-14.109-34.816 0-13.184 8.039-24.479 15.043-33.042 6.53-7.981 15.207-8.834 22.833-8.834h.321c8.149 0 21.789-.224 28.172 7.698 7.362 9.139 12.12 22.53 12.12 34.289 0 7.437-2.455 13.125-4.83 18.68-.277.649-.556 1.272-.831 1.927-5.538 13.21-21.544 24.342-34.952 24.342zm0-79.936c-7.266 0-13.008.88-17.415 6.267-6.268 7.661-13.461 17.751-13.461 28.721 0 10.203 6.555 22.436 12.689 30.534 3.968 5.236 9.406 7.442 18.187 7.442 9.479 0 23.68-8.599 28.497-20.09.281-.671.565-1.343.85-2.007 2.194-5.133 4.267-9.985 4.267-15.988 0-12.465-5.694-23.734-10.571-29.787-4.281-5.314-15.824-5.092-22.721-5.092h-.322z"/><path fill="#fff" d="M574.464 470.624c0 13.179-4.035 37.539-8.506 48.194-9.133 21.786-39.91 38.744-59.532 38.744-14.234 0-42.469-11.075-51.975-23.625-10.015-13.22-14.646-42.537-14.646-63.115 0-21.582 6.594-38.867 17.481-52.173 9.349-11.429 29.104-15.688 42.607-15.688 13.647 0 44.709 8.158 54.094 19.806 10.711 13.295 20.477 26.471 20.477 47.857z"/><path fill="#002221" d="M506.426 561.063c-15.789 0-44.739-11.776-54.765-25.012-10.551-13.928-15.356-43.576-15.356-65.229 0-21.272 6.147-39.571 18.272-54.39 10.247-12.526 30.815-16.971 45.316-16.971 13.669 0 46.435 8.221 56.819 21.109 11.627 14.431 21.251 28.158 21.251 50.053 0 12.966-3.916 37.959-8.778 49.549-9.653 23.028-41.664 40.891-62.759 40.891zm-6.532-154.601c-13.995 0-31.76 4.454-39.898 14.403-11.075 13.535-16.69 30.343-16.69 49.957 0 21.172 4.787 48.925 13.937 61.002 8.517 11.243 35.362 22.238 49.185 22.238 18.554 0 47.806-16.325 56.305-36.598 4.078-9.721 8.233-33.359 8.233-46.841 0-19.646-8.539-31.806-19.702-45.66-8.087-10.034-37.305-18.501-51.37-18.501z"/><path fill="#fff" d="M676.904 377.051c-9.685 4.573-29.151 9.716-38.714 9.741-19.552.063-43.943-19.316-51.55-35.425-5.517-11.684-8.32-38.703-2.784-50.862 5.834-12.81 25.583-26.785 40.705-33.925 15.862-7.491 31.12-8.075 45.118-3.754 12.024 3.708 22.811 18.446 28.045 29.532 5.291 11.204 11.336 39.531 6.412 51.277-5.617 13.407-11.515 25.994-27.232 33.416z"/><path fill="#002221" d="M638.095 390c-20.807 0-46.445-19.975-54.619-37.284-6.127-12.977-8.676-40.839-2.805-53.733 6.228-13.674 26.343-28.024 42.396-35.604 15.722-7.424 32.005-8.744 47.645-3.915 13.269 4.092 24.55 19.471 30.178 31.39 5.446 11.534 12.042 40.849 6.475 54.13-6.159 14.699-12.591 27.352-28.966 35.084-9.617 4.54-29.693 9.932-40.199 9.932h-.105zm13.925-126.377c-8.626 0-17.361 2.06-25.964 6.123-15.411 7.277-33.762 20.678-39.014 32.211-4.93 10.826-2.632 36.589 2.716 47.917C596.906 365.01 620 383.292 638 383.292v3.5l.131-3.5c8.625-.023 27.438-4.77 37.256-9.406 14.153-6.683 19.72-17.785 25.511-31.604 4.213-10.053-.897-36.897-6.344-48.43-5.241-11.101-15.582-24.498-25.908-27.682-5.478-1.69-11.069-2.547-16.626-2.547z"/><path fill="#699" d="M480.971 226.825c0 7.059-2.833 12.399-5.391 18.108-5.226 11.669-20.498 20.807-31.725 20.807-8.143 0-15.534-1.57-20.974-8.293-5.73-7.083-13.402-19.597-13.402-30.621 0-11.563 8.026-21.946 14.255-29.074 5.348-6.122 12.396-7.279 20.121-7.279 7.81 0 20.399-.043 25.769 6.196 6.129 7.12 11.347 18.7 11.347 30.156z"/><path fill="#002221" d="M443.855 269.239c-7.419 0-16.816-1.09-23.694-9.592-3.327-4.112-14.182-18.63-14.182-32.823 0-12.475 8.08-23.307 15.119-31.363 6.524-7.469 15.165-8.461 22.757-8.461h.324c8.123 0 21.719-.014 28.098 7.399 7.407 8.606 12.193 21.333 12.193 32.433 0 7.049-2.473 12.461-4.863 17.698-.278.61-.558 1.22-.833 1.836-6.128 13.683-23.003 22.873-34.919 22.873zm0-75.239c-7.307 0-13.076 1.02-17.485 6.067-6.234 7.135-13.391 16.618-13.391 26.765 0 9.45 6.521 20.874 12.623 28.416 3.967 4.903 9.426 6.994 18.253 6.994 9.507 0 23.729-8.014 28.53-18.738.283-.631.569-1.258.854-1.883 2.176-4.766 4.23-9.268 4.23-14.795 0-11.569-5.656-22.232-10.499-27.859-4.285-4.979-16.324-4.965-22.792-4.965h-.323z"/><path fill="#699" d="M526.672 203.981c2.384 6.166 1.533 11.856 1.063 17.767-.961 12.089-12.202 25.611-22.732 29.685-7.641 2.956-15.105 4.268-22.481.368-7.768-4.105-19.191-12.25-22.914-21.877-3.906-10.098.116-22.079 3.55-30.564 2.949-7.287 9.171-10.855 16.419-13.66 7.325-2.831 19.123-7.438 26.267-3.938 8.152 3.995 16.961 12.214 20.828 22.219z"/><path fill="#002221" d="M492.329 257.725c-4.042 0-7.892-.952-11.444-2.83-4.533-2.396-19.7-11.186-24.543-23.709-4.263-11.019-.331-23.499 3.57-33.14 3.59-8.871 11.316-12.87 18.4-15.611l.164-.063c5.532-2.139 13.894-5.37 21.124-5.37 2.974 0 5.592.544 7.781 1.617 9.922 4.862 18.775 14.322 22.555 24.101 2.417 6.253 1.924 11.926 1.447 17.413-.055.629-.11 1.26-.16 1.893-1.129 14.204-13.817 28.361-24.959 32.671-5.339 2.066-9.768 3.028-13.935 3.028zm7.272-73.724c-5.925 0-13.553 2.948-18.601 4.899l-.163.063c-5.972 2.311-11.854 5.329-14.437 11.708-3.417 8.445-6.906 19.259-3.529 27.989 3.152 8.152 13.062 15.7 21.285 20.046 2.569 1.358 5.243 2.019 8.173 2.019 3.275 0 6.901-.813 11.41-2.557 8.953-3.464 19.625-15.618 20.506-26.698.052-.651.108-1.299.165-1.945.445-5.121.829-9.543-1.003-14.282-3.863-9.995-12.706-17.203-19.105-20.339-1.223-.599-2.805-.903-4.701-.903z"/><path fill="#699" d="M407.052 366.05c-6.174 10.993-13.306 9.181-21.47 11.767-12.339 3.905-23.582 8.004-34.775.074 0 0-6.912-5.863-7.737-14.268-.871-8.853-3.546-24.87 2.228-34.275 6.055-9.864 19.486-13.262 28.196-16.288 7.482-2.599 9.79.511 19.788.721 7.165.15 16.429 12.914 17.45 20.871 1.166 9.081 1.935 21.398-3.68 31.398z"/><path fill="#002221" d="M364.969 385.922c-5.975 0-11.27-1.693-16.186-5.176l-.24-.187c-.326-.276-8.004-6.891-8.957-16.595-.099-1.006-.222-2.106-.353-3.281-1.058-9.486-2.656-23.822 3.081-33.167 6.009-9.79 18.036-13.774 26.817-16.683 1.123-.372 2.2-.729 3.213-1.081 2.405-.835 4.533-1.225 6.697-1.225 2.074 0 3.911.358 5.855.738 2.25.439 4.802.937 8.457 1.014 9.494.199 19.71 15.052 20.849 23.924 1.278 9.949 1.968 22.754-4.1 33.559-5.462 9.725-12.156 11.003-18.063 12.131-1.771.338-3.604.688-5.402 1.258l-1.587.504c-6.887 2.196-13.393 4.267-20.081 4.267zM352.98 375.14c3.696 2.58 7.511 3.782 11.988 3.782 5.601 0 11.604-1.912 17.959-3.935l1.599-.508c2.191-.694 4.229-1.083 6.201-1.46 5.46-1.042 9.404-1.796 13.272-8.684 5.062-9.013 4.4-20.36 3.26-29.239-.906-7.061-9.312-17.718-14.052-17.818-4.259-.089-7.249-.673-9.652-1.142-1.741-.34-3.116-.608-4.514-.608-1.358 0-2.757.266-4.4.837-1.043.362-2.152.73-3.309 1.113-8.189 2.713-18.382 6.089-23.054 13.7-4.479 7.296-3.041 20.195-2.089 28.73.135 1.206.261 2.337.362 3.372.624 6.335 5.686 11.181 6.429 11.86zm185.548 93.875c-33.992-4.251.112 46.125-31.544 59.14-5.643-20.214-19.604-28.471-35.639-11.676-7.912-21.293 29.637-27.045 8.449-54.213-20.094-25.765-33.119 15.913-20.804 43.134 19.064 42.153 34.316 46.51 61.668 20.035 7.987-7.73 42.803-53.301 17.87-56.42z"/><path fill="#699" d="M693.378 321.465c.12 17.683-17.699 54.152-42.433 41.585-12.614-6.41-5.681-25.645-13.467-41.206-7.731-15.447-4.02-47.006 12.848-49.89 16.554-2.828 42.826 16.291 43.052 49.511z"/><path fill="#002221" d="M375 737H94c-11.046 0-20-8.954-20-20s8.954-20 20-20h281c11.046 0 20 8.954 20 20s-8.954 20-20 20zM145.5 446.5c-6.903 0-12.5-5.597-12.5-12.5v-77c0-6.903 5.597-12.5 12.5-12.5S158 350.097 158 357v77c0 6.903-5.597 12.5-12.5 12.5z"/><path fill="#002221" d="M144.5 542.5c-6.903 0-12.5-5.597-12.5-12.5v-76c0-6.903 5.597-12.5 12.5-12.5S157 447.097 157 454v76c0 6.903-5.597 12.5-12.5 12.5zM168 357h-44c-4.418 0-8-3.582-8-8s3.582-8 8-8h44c4.418 0 8 3.582 8 8s-3.582 8-8 8zm101.086 230.387c0 44.811-21.707 84.613-55.175 109.613h105.051c11.351-25 17.717-50.565 17.717-78.597 0-97.944-77.61-177.911-174.688-181.461 4.951 6.282 9.071 13.329 12.197 20.813 55.013 17.366 94.898 68.879 94.898 129.632z"/><circle cx="145.487" cy="445.891" r="35.612" fill="#699"/><path fill="#002221" d="M145.486 489.503c-24.047 0-43.611-19.564-43.611-43.612s19.564-43.612 43.611-43.612c24.049 0 43.613 19.564 43.613 43.612s-19.564 43.612-43.613 43.612zm0-71.225c-15.225 0-27.611 12.387-27.611 27.612s12.387 27.612 27.611 27.612c15.226 0 27.613-12.387 27.613-27.612s-12.387-27.612-27.613-27.612z"/><path fill="#699" d="M237 598H110c-8.284 0-15-6.716-15-15s6.716-15 15-15h127c8.284 0 15 6.716 15 15s-6.716 15-15 15z"/><path fill="#002221" d="M78.103 80.492c.781.684 1.428 1.55 1.941 2.6.512 1.05.769 2.405.769 4.065 0 1.709-.37 3.255-1.11 4.639-.741 1.384-1.682 2.563-2.82 3.54-1.303 1.107-2.89 1.937-4.761 2.49-1.872.553-3.891.83-6.055.83-2.393 0-4.61-.224-6.653-.671-2.042-.447-3.666-.916-4.87-1.404v-5.42h.366c1.611.96 3.43 1.746 5.457 2.356 2.025.61 3.958.916 5.798.916 1.172 0 2.441-.171 3.809-.513s2.474-.846 3.32-1.514c.879-.732 1.518-1.55 1.917-2.454.398-.903.598-1.917.598-3.04 0-1.286-.244-2.339-.732-3.162-.488-.822-1.147-1.485-1.978-1.99-.83-.488-1.835-.842-3.015-1.062-1.181-.22-2.495-.33-3.943-.33h-4.907v-4.126h4.37c2.815 0 5.078-.517 6.787-1.55 1.709-1.033 2.563-2.527 2.563-4.48 0-.879-.216-1.652-.647-2.319-.431-.667-1.021-1.196-1.77-1.587-.732-.391-1.551-.671-2.453-.842-.904-.171-1.975-.256-3.211-.256-1.27 0-2.441.122-3.516.366s-2.092.529-3.052.854c-.781.277-1.579.627-2.393 1.05-.814.423-1.408.741-1.782.952h-.317v-5.347c1.221-.521 2.84-1.001 4.858-1.44 2.018-.439 4.053-.659 6.104-.659 2.002 0 3.723.159 5.164.476 1.439.317 2.771.834 3.991 1.55 1.27.781 2.237 1.726 2.905 2.832.667 1.107 1.001 2.393 1.001 3.857 0 2.067-.663 3.817-1.989 5.249-1.327 1.433-3.008 2.368-5.042 2.808v.366c.846.146 1.749.411 2.71.793.96.385 1.822.91 2.588 1.577zm38.793 17.505h-5.151l-3.564-10.132H92.458l-3.564 10.132h-4.907l13.232-36.353h6.445l13.232 36.353zm-10.205-14.283-6.372-17.847-6.396 17.847h12.768zM145.9 65.941h-18.652v32.056h-4.834V61.644H145.9v4.297zm33.496 32.056h-5.151l-3.564-10.132h-15.723l-3.564 10.132h-4.907l13.232-36.353h6.445l13.232 36.353zm-10.205-14.283-6.372-17.847-6.396 17.847h12.768zm42.676 14.283h-4.834V65.941h-13.135c-.049 1.839-.118 3.642-.208 5.408-.089 1.766-.158 3.341-.207 4.724-.131 3.483-.346 6.348-.646 8.594-.302 2.246-.688 4.094-1.16 5.542-.473 1.465-1.005 2.633-1.6 3.503-.594.871-1.273 1.656-2.038 2.356-.781.716-1.583 1.229-2.405 1.538-.821.31-1.786.464-2.893.464-.342 0-.757-.012-1.245-.037s-.83-.037-1.025-.037v-4.688h.342c.162.017.366.033.61.049.244.017.488.024.732.024.586 0 1.139-.089 1.66-.269.521-.179.96-.456 1.318-.83 1.155-1.155 2.006-3.06 2.551-5.713.546-2.653.932-6.429 1.16-11.328.081-1.595.167-3.711.256-6.348.09-2.637.167-5.054.232-7.251h22.534v36.355zm36.963-11.255c0 1.758-.346 3.353-1.038 4.785-.691 1.433-1.615 2.596-2.771 3.491-1.367 1.074-2.832 1.839-4.395 2.295-1.563.456-3.581.684-6.055.684h-12.939V61.644h4.834v14.258h8.252c2.474 0 4.492.143 6.055.427 1.563.285 3.035.964 4.419 2.039 1.236.96 2.152 2.148 2.746 3.564.595 1.416.892 3.02.892 4.81zm-5.054.097c0-1.221-.204-2.295-.61-3.223-.407-.928-1.042-1.676-1.904-2.246-.896-.602-1.929-.968-3.101-1.099-1.172-.13-2.824-.195-4.956-.195h-6.738V93.87h6.616c2.164 0 3.829-.105 4.992-.317 1.164-.211 2.186-.618 3.064-1.221.911-.635 1.578-1.379 2.002-2.234.423-.854.635-1.94.635-3.259zm39.698 11.158h-4.834V80.199H260.5v17.798h-4.834V61.644h4.834v14.258h18.14V61.644h4.834v36.353zm37.524 0h-4.81V68.871l-18.066 29.126h-4.883V61.644h4.81v28.687l17.847-28.687h5.103v36.353zm37.524 0h-4.81V68.871l-18.066 29.126h-4.883V61.644h4.81v28.687l17.847-28.687h5.103v36.353zm-4.418-47.242c-.082 2.702-.94 4.736-2.575 6.104-1.637 1.367-3.821 2.051-6.556 2.051s-4.919-.684-6.556-2.051c-1.635-1.367-2.494-3.401-2.575-6.104h4.443c.032 1.823.439 3.137 1.221 3.943s1.937 1.208 3.467 1.208c1.546 0 2.706-.398 3.479-1.196.772-.797 1.175-2.116 1.208-3.955h4.444zm60.424 47.242h-5.151l-3.564-10.132H390.09l-3.564 10.132h-4.907l13.232-36.353h6.445l13.232 36.353zm-10.205-14.283-6.372-17.847-6.396 17.847h12.768zm43.531 14.283h-4.834V80.199h-18.14v17.798h-4.834V61.644h4.834v14.258h18.14V61.644h4.834v36.353zm38.427 0h-5.151l-3.564-10.132h-15.723l-3.564 10.132h-4.907l13.232-36.353h6.445l13.232 36.353zm-10.205-14.283-6.372-17.847-6.396 17.847h12.768zm42.676 14.283h-4.834V65.941h-13.135c-.049 1.839-.118 3.642-.208 5.408-.089 1.766-.158 3.341-.207 4.724-.131 3.483-.346 6.348-.646 8.594-.302 2.246-.688 4.094-1.16 5.542-.473 1.465-1.005 2.633-1.6 3.503-.594.871-1.273 1.656-2.038 2.356-.781.716-1.583 1.229-2.405 1.538-.821.31-1.786.464-2.893.464-.342 0-.757-.012-1.245-.037s-.83-.037-1.025-.037v-4.688h.342c.162.017.366.033.61.049.244.017.488.024.732.024.586 0 1.139-.089 1.66-.269.521-.179.96-.456 1.318-.83 1.155-1.155 2.006-3.06 2.551-5.713.546-2.653.932-6.429 1.16-11.328.081-1.595.167-3.711.256-6.348.09-2.637.167-5.054.232-7.251h22.534v36.355zm22.583 0H526.98v-3.711h4.761V65.355h-4.761v-3.711h14.355v3.711h-4.761v28.931h4.761v3.711zm28.882-17.505c.781.684 1.429 1.55 1.94 2.6.514 1.05.77 2.405.77 4.065 0 1.709-.37 3.255-1.111 4.639-.74 1.384-1.681 2.563-2.819 3.54-1.303 1.107-2.89 1.937-4.761 2.49-1.872.553-3.891.83-6.055.83-2.393 0-4.61-.224-6.652-.671-2.043-.447-3.667-.916-4.871-1.404v-5.42h.366c1.611.96 3.431 1.746 5.456 2.356 2.027.61 3.959.916 5.799.916 1.172 0 2.441-.171 3.809-.513s2.474-.846 3.32-1.514c.879-.732 1.518-1.55 1.916-2.454.399-.903.599-1.917.599-3.04 0-1.286-.244-2.339-.732-3.162-.488-.822-1.147-1.485-1.978-1.99-.83-.488-1.835-.842-3.016-1.062-1.18-.22-2.494-.33-3.942-.33h-4.907v-4.126h4.37c2.815 0 5.078-.517 6.787-1.55 1.709-1.033 2.563-2.527 2.563-4.48 0-.879-.216-1.652-.646-2.319-.432-.667-1.022-1.196-1.771-1.587-.732-.391-1.55-.671-2.454-.842-.902-.171-1.974-.256-3.21-.256-1.27 0-2.441.122-3.516.366s-2.092.529-3.052.854c-.781.277-1.579.627-2.393 1.05-.814.423-1.408.741-1.782.952h-.317v-5.347c1.221-.521 2.84-1.001 4.858-1.44 2.018-.439 4.053-.659 6.104-.659 2.002 0 3.724.159 5.163.476 1.441.317 2.771.834 3.992 1.55 1.27.781 2.237 1.726 2.905 2.832.667 1.107 1.001 2.393 1.001 3.857 0 2.067-.663 3.817-1.99 5.249-1.326 1.433-3.007 2.368-5.041 2.808v.366c.846.146 1.749.411 2.71.793.96.385 1.822.91 2.588 1.577zm56.933 17.505h-6.201L606.178 81.42h-3.296v16.577h-4.834V61.644h4.834v16.309c.83-.016 1.611-.098 2.344-.244s1.424-.423 2.075-.83c.65-.374 1.294-.907 1.929-1.599.635-.691 1.196-1.542 1.685-2.551.211-.439.46-.993.744-1.66.285-.667.574-1.367.867-2.1 1.123-2.702 2.438-4.598 3.943-5.688 1.505-1.09 3.723-1.636 6.652-1.636h1.929v4.321h-2.026c-1.123 0-2.002.102-2.637.305-.635.204-1.205.542-1.709 1.013-.473.423-.883.993-1.232 1.709-.351.716-.713 1.555-1.087 2.515-.847 2.148-1.705 3.728-2.575 4.736-.871 1.009-2.039 1.888-3.504 2.637l16.87 19.116zm29.2-25.367c0 1.611-.28 3.105-.843 4.48-.561 1.375-1.347 2.568-2.355 3.577-1.254 1.253-2.734 2.193-4.443 2.82-1.709.627-3.866.94-6.47.94h-4.834v13.55h-4.834V61.644h9.863c2.181 0 4.028.183 5.542.549s2.856.94 4.028 1.721c1.383.928 2.454 2.083 3.21 3.467.758 1.384 1.136 3.134 1.136 5.249zm-5.03.122c0-1.253-.22-2.344-.659-3.271s-1.107-1.685-2.002-2.271c-.781-.504-1.672-.867-2.674-1.086-1-.22-2.267-.33-3.796-.33h-4.785V80.32h4.077c1.953 0 3.54-.175 4.761-.525 1.221-.35 2.213-.907 2.979-1.672.765-.781 1.306-1.603 1.624-2.466.316-.862.475-1.83.475-2.905zm38.501-6.933c1.48 1.628 2.616 3.622 3.406 5.981.789 2.36 1.184 5.038 1.184 8.032 0 2.995-.402 5.676-1.209 8.044-.805 2.368-1.933 4.342-3.381 5.92-1.498 1.644-3.268 2.881-5.311 3.711-2.042.83-4.374 1.245-6.994 1.245-2.556 0-4.879-.423-6.971-1.27-2.091-.846-3.869-2.075-5.334-3.687s-2.592-3.589-3.381-5.933c-.79-2.344-1.185-5.021-1.185-8.032 0-2.962.391-5.619 1.172-7.971.781-2.352 1.92-4.366 3.418-6.042 1.432-1.595 3.21-2.815 5.335-3.662 2.123-.846 4.438-1.27 6.945-1.27 2.604 0 4.943.427 7.02 1.282 2.075.856 3.837 2.073 5.286 3.652zm-.439 14.014c0-4.72-1.059-8.362-3.174-10.925-2.116-2.563-5.005-3.845-8.667-3.845-3.695 0-6.596 1.282-8.704 3.845-2.107 2.563-3.161 6.206-3.161 10.925 0 4.769 1.074 8.419 3.223 10.95 2.148 2.531 5.029 3.796 8.643 3.796s6.49-1.265 8.63-3.796c2.14-2.532 3.21-6.181 3.21-10.95zm40.112 6.982c0 1.807-.342 3.402-1.025 4.785-.684 1.384-1.604 2.523-2.759 3.418-1.367 1.074-2.869 1.839-4.504 2.295-1.637.456-3.716.684-6.238.684h-12.891V61.644h10.767c2.652 0 4.639.098 5.957.293s2.579.603 3.784 1.221c1.334.7 2.303 1.599 2.905 2.698.602 1.099.903 2.413.903 3.943 0 1.726-.439 3.194-1.318 4.407s-2.051 2.185-3.516 2.917v.195c2.457.505 4.395 1.583 5.811 3.235 1.416 1.652 2.124 3.739 2.124 6.262zm-8.13-16.382c0-.879-.146-1.619-.439-2.222-.293-.602-.766-1.09-1.416-1.465-.766-.439-1.693-.712-2.783-.818-1.091-.105-2.441-.159-4.053-.159h-5.762v10.498h6.25c1.514 0 2.718-.077 3.613-.232.895-.154 1.725-.476 2.49-.964.765-.488 1.307-1.119 1.623-1.892.319-.772.477-1.688.477-2.746zm3.101 16.577c0-1.465-.22-2.628-.659-3.491-.439-.862-1.237-1.595-2.393-2.197-.781-.407-1.729-.671-2.844-.793-1.115-.122-2.471-.183-4.065-.183h-7.593v13.525h6.396c2.115 0 3.849-.11 5.2-.33 1.351-.22 2.457-.623 3.32-1.208.911-.635 1.578-1.359 2.002-2.173.424-.814.636-1.864.636-3.15zm24.707 10.987h-14.355v-3.711h4.761V65.355h-4.761v-3.711h14.355v3.711h-4.761v28.931h4.761v3.711z"/></svg>