<svg xmlns="http://www.w3.org/2000/svg" xml:space="preserve" viewBox="0 0 800 800"><path fill="#fff" d="M0 0h800v800H0z"/><path fill="#002221" d="M622.244 441.763c-7.666-9.327-18.382-16.406-31.383-16.147-20.476.405-36.748 17.279-36.34 37.688.123 6.268 1.811 12.137 4.676 17.253 4.422 8.786 11.586 16.239 16.025 21.043 16.116 17.427 25.094 51.138 25.795 86.475.943 47.568-17.866 90.95-48.926 122.348-3.953 3.996-.784 7.273 4.813 4.774 61.52-27.458 103.815-89.584 102.398-160.983-.464-23.328-4.17-49.085-13.215-72.286-3.745-9.608-9.617-22.863-23.843-40.165z"/><path fill="#002221" d="M581.071 596.591c-.008-.078-.013-.152-.02-.23-7.411-80.061-141.243-215.505-141.243-215.505.146-13.967-1.853-28.07-6.462-41.279-8.851-25.367-27.737-45.666-53.083-55.162-25.651-9.612-53.225-4.189-76.355 9.854-21.986 13.344-41.643 34.328-49.777 59.018-3.799 11.529-7.193 23.248-7.737 35.426-.687 15.449 1.025 31.272 5.796 46.021 4.104 12.686 11.503 23.652 17.637 35.383 6.419 12.281 10.654 25.631 13.665 39.115 4.712 21.109 6.639 42.941 6.471 64.554-.194 25.585-3.167 50.678-11.419 75.021-2.664 7.853-6.963 15.002-7.979 23.349-.835 6.856.041 13.893 2.564 20.322 4.621 11.78 14.624 21.064 26.753 24.796 25.989 7.993 53.375-11.355 54.397-38.435 15.617 23.568 37.772 42.139 65.223 50.156 25.971 7.587 54.33 7.415 79.885-1.631 48.946-17.328 82.521-64.791 82.521-116.54-.001-4.761-.29-9.514-.837-14.233z"/><path fill="#fff" d="M364.149 596.254c18.999-27.33 32.733-50.229 16.705-71.182-7.444-9.126-21.836-10.835-34.166-.891-12.364 9.418-22.671 30.49-22.817 54.694-.773 24.521 7.347 44.947 13.411 58.465 6.403 13.65 10.752 20.392 10.34 20.69-.002.188-2.78-7.835-.771-19.771 1.617-11.889 8.024-27.696 17.298-42.005z"/><path fill="#002221" d="M343.916 267.195c-20.438 3.975-46.716 13.907-66.813 32.617-25.604 23.833-40.961 51.961-43.729 84.111-.869 10.115-6.324 10.223-9.22.348-6.145-20.902-4.729-43.264.309-64.258 4.932-20.577 26.392-50.199 29.469-63.505 1.404-6.095 1.461-14.404-1.105-19.999-4.007-8.739-12.431-14.99-22.625-15.746-8.256-.612-16.598 1.121-24.461 3.482-9.145 2.742-18.403 4.44-27.901 5.383-12.225 1.21-23.243-.357-34.616-4.77-14.71-5.698-26.898-20.399-30.669-35.572-.722-2.914-1.542-6.946.723-9.403 2.105-2.278 5.263-3.692 8.053-4.928 4.383-1.934 8.909-3.605 13.384-5.34 12.444-4.837 24.979-9.472 37.344-14.513 4.256-1.734 8.507-3.591 12.479-5.918 7.541-4.412 10.686-11.655 15.404-18.592 8.605-12.658 18.695-20.702 32.002-26.74 1.07-.488 1.643-3.76.913-4.836-7.639-11.277-9.128-16.131-12.729-25.824-3.084-8.307-2.654-15.824-4.154-23.521-1.128-5.803 1.256-8.658 4.612-2.668 6.239 11.15 21.182 16.783 32.076 21.256 14.045 5.225 30.353 12.365 38.318 25.832 1.605 2.71 3.667 12.496 4.048 12.758 35.979 26.284 55.587 55.333 66.087 75.922 13.263 26.01 14.073 44.092 12.431 57.883-1.882 15.753-11.65 23.046-29.63 26.541z"/></svg>