<svg xmlns="http://www.w3.org/2000/svg" xml:space="preserve" viewBox="0 0 800 800"><path fill="#fff" d="M0 0h800v800H0z"/><path fill="#699" d="M319 274.558C319 257.129 304.871 243 287.442 243H126.558C109.129 243 95 257.129 95 274.558v267.885C95 559.871 109.129 574 126.558 574h160.885C304.871 574 319 559.871 319 542.442V274.558z"/><path fill="#002221" d="M287.442 581H126.558C105.297 581 88 563.703 88 542.442V274.558C88 253.297 105.297 236 126.558 236h160.885c21.26 0 38.557 17.297 38.557 38.558v267.885c0 21.26-17.297 38.557-38.558 38.557zM126.558 250C113.017 250 102 261.017 102 274.558v267.885c0 13.54 11.017 24.557 24.558 24.557h160.885c13.54 0 24.557-11.017 24.557-24.558V274.558C312 261.017 300.983 250 287.442 250H126.558zm483.884 195H449.558C428.297 445 411 427.703 411 406.442V138.558C411 117.297 428.297 100 449.558 100h160.885c21.26 0 38.557 17.297 38.557 38.558v267.885c0 21.26-17.297 38.557-38.558 38.557zM449.558 114C436.017 114 425 125.017 425 138.558v267.885c0 13.54 11.017 24.557 24.558 24.557h160.885c13.54 0 24.557-11.017 24.557-24.558V138.558C635 125.017 623.983 114 610.442 114H449.558zm119.68 510.12c-17.438 0-33.014-10.412-39.68-26.525l-.035-.083c-9.069-21.933 1.363-47.086 23.23-56.133l106.914-44.228c5.244-2.169 10.759-3.269 16.393-3.269 17.41 0 32.962 10.379 39.645 26.449l.03.068c.022.051.044.102.065.152 4.382 10.596 4.375 22.263-.018 32.854-4.394 10.592-12.648 18.838-23.243 23.219l-106.908 44.227c-5.243 2.17-10.759 3.269-16.393 3.269zm106.823-116.237c-3.788 0-7.503.742-11.041 2.206l-106.914 44.228c-14.735 6.096-21.765 23.046-15.67 37.785l.035.082c4.518 10.92 15.015 17.937 26.768 17.937 3.788 0 7.504-.742 11.042-2.206l106.909-44.227c7.14-2.952 12.701-8.508 15.662-15.645 2.95-7.113 2.965-14.947.041-22.068l-.026-.062c-.022-.051-.044-.102-.065-.152-4.492-10.861-14.989-17.878-26.741-17.878z"/><path fill="#fff" d="M658.824 654.781c-6.104 18.876-26.356 29.233-45.235 23.128l-110.086-35.598c-18.878-6.103-29.232-26.354-23.129-45.234l.048-.147c6.105-18.877 26.358-29.233 45.236-23.127l110.085 35.596c18.879 6.104 29.232 26.355 23.128 45.234l-.047.148z"/><path fill="#002221" d="M624.65 686.662c-4.477 0-8.923-.704-13.216-2.093L501.35 648.972c-10.909-3.526-19.792-11.091-25.012-21.299s-6.151-21.839-2.624-32.749l.05-.155c5.749-17.773 22.158-29.719 40.832-29.719 4.477 0 8.924.704 13.217 2.093l110.084 35.596c10.91 3.526 19.793 11.092 25.012 21.3 5.22 10.208 6.151 21.839 2.623 32.748l-.032.103c-5.765 17.826-22.175 29.772-40.85 29.772zM514.596 579.05c-12.581 0-23.637 8.051-27.514 20.034l-.05.154c-2.374 7.345-1.746 15.182 1.771 22.061 3.518 6.879 9.503 11.976 16.854 14.353l110.086 35.598c2.899.938 5.896 1.413 8.908 1.413 12.582 0 23.639-8.052 27.514-20.034l.032-.103c2.392-7.398 1.764-15.235-1.753-22.114-3.517-6.878-9.502-11.976-16.854-14.353l-110.085-35.596c-2.901-.938-5.898-1.413-8.909-1.413zm-141.574 72.758c-10.269 0-20.214-3.696-28.003-10.406l-.108-.093c-8.697-7.492-13.949-17.911-14.8-29.345-.85-11.435 2.805-22.516 10.291-31.202l75.52-87.648c8.164-9.474 20.022-14.906 32.537-14.906 10.27 0 20.214 3.696 28.002 10.407l.106.092c17.94 15.46 19.959 42.617 4.509 60.546l-75.521 87.649c-8.161 9.472-20.019 14.906-32.533 14.906zm75.437-159.601c-8.437 0-16.431 3.661-21.932 10.045l-75.52 87.649c-5.045 5.854-7.508 13.32-6.935 21.024.572 7.704 4.112 14.725 9.966 19.768l.108.093c5.259 4.53 11.959 7.021 18.875 7.021 8.435 0 16.427-3.661 21.927-10.045l75.521-87.649c10.41-12.081 9.05-30.381-3.032-40.793l-.107-.092c-5.257-4.531-11.955-7.021-18.871-7.021z"/><path fill="#699" d="M558.23 622.552c-6.117 18.916 4.262 39.211 23.184 45.33l-77.354-25.013c-18.879-6.102-29.232-26.352-23.125-45.234l.045-.146c6.105-18.878 26.355-29.232 45.234-23.131l77.111 24.935c-18.854-5.95-39.003 4.414-45.095 23.259z"/><path fill="#002221" d="M581.416 674.884c-.714 0-1.439-.11-2.155-.342l-77.354-25.013c-10.91-3.525-19.793-11.09-25.012-21.298s-6.149-21.84-2.62-32.751l.018-.057c5.778-17.87 22.189-29.816 40.864-29.816 4.475 0 8.919.703 13.21 2.09l77.112 24.936c3.67 1.187 5.688 5.117 4.515 8.79-1.174 3.674-5.098 5.703-8.774 4.546-2.848-.898-5.788-1.354-8.739-1.354-12.617 0-23.705 8.074-27.589 20.091-4.92 15.213 3.455 31.593 18.672 36.515l.004.002h.001c3.678 1.189 5.695 5.136 4.506 8.813-.959 2.962-3.705 4.848-6.659 4.848zm-66.259-95.277c-12.583 0-23.641 8.052-27.517 20.036l-.017.057c-2.406 7.442-1.779 15.28 1.737 22.158 3.516 6.878 9.501 11.974 16.852 14.35l47.167 15.252c-4.309-9.436-5.245-20.439-1.81-31.063 3.394-10.497 10.495-18.965 19.587-24.149l-47.096-15.229c-2.896-.937-5.892-1.412-8.903-1.412z"/><path fill="#699" d="M631.459 553.844c-8.248-18.134-29.813-25.841-48.161-17.208l74.288-31.136c18.312-8.61 36.542-5.524 48.852 13.175 10.932 16.607 6.654 39.464-16.533 50.794l-76.494 32.732c18.187-8.706 26.271-30.294 18.048-48.357z"/><path fill="#002221" d="M613.413 609.203c-2.667 0-5.21-1.533-6.379-4.113-1.572-3.469-.082-7.559 3.354-9.202 14.723-7.048 21.317-24.607 14.7-39.144-4.6-10.113-14.84-16.646-26.088-16.646-3.452 0-6.863.604-10.144 1.798l-2.853 1.196c-3.512 1.474-7.555-.134-9.103-3.612-1.547-3.479-.029-7.557 3.416-9.178 1.114-.524 2.26-1.007 3.407-1.435l71.022-29.768c7.347-3.434 14.638-5.175 21.671-5.175 14.463 0 26.865 7.228 35.866 20.901 6.502 9.877 8.509 21.838 5.505 32.815-3.258 11.905-12.069 21.89-24.812 28.116-.105.052-.212.101-.319.146l-76.494 32.732c-.895.387-1.828.569-2.749.569zm3.633-79.122c9.053 4.201 16.528 11.506 20.785 20.864 4.839 10.631 4.915 22.343 1.13 32.709l48.022-20.55c9.121-4.497 15.103-11.119 17.302-19.157 1.971-7.202.658-14.811-3.694-21.424-6.377-9.687-14.51-14.599-24.173-14.599-5.003 0-10.337 1.315-15.854 3.91-.09.042-.181.082-.271.121l-43.247 18.126z"/><path fill="#699" d="M419.141 555.688c-15.029-13.012-37.766-11.373-50.779 3.664l53.204-61.469c12.978-15 35.664-16.639 50.671-3.65l.117.099c14.998 12.983 16.633 35.672 3.654 50.673l-53.035 61.279c12.83-15.042 11.146-37.638-3.832-50.596z"/><path fill="#002221" d="M422.97 613.283c-1.615 0-3.238-.556-4.559-1.69-2.925-2.514-3.267-6.919-.764-9.853 10.308-12.085 8.924-30.369-3.087-40.759-5.27-4.563-12.002-7.074-18.96-7.074-8.423 0-16.413 3.646-21.926 10.002l-.021.023c-2.532 2.923-6.951 3.241-9.874.712-2.923-2.53-3.242-6.95-.712-9.874l53.204-61.469c8.155-9.427 19.989-14.833 32.466-14.833 10.306 0 20.277 3.719 28.079 10.471l.043.035c17.966 15.552 19.925 42.713 4.441 60.609l-53.036 61.28c-1.382 1.6-3.333 2.42-5.294 2.42zm-27.369-73.376c10.322 0 20.31 3.725 28.122 10.488 8.431 7.294 13.33 17.212 14.529 27.536l32.463-37.509c10.434-12.06 9.114-30.362-2.942-40.8l-.043-.034c-5.332-4.614-12.05-7.12-18.991-7.12-8.409 0-16.384 3.643-21.879 9.994l-32.424 37.46c.387-.009.775-.015 1.165-.015z"/><path fill="#fff" d="M140 531c-8.837 0-16-7.163-16-16V291c0-8.836 7.163-16 16-16s16 7.164 16 16v224c0 8.837-7.163 16-16 16zm264.059 32.898c-1.576 0-3.161-.529-4.469-1.615-2.974-2.47-3.383-6.883-.912-9.857l39.625-47.713c2.469-2.973 6.883-3.382 9.857-.912 2.974 2.47 3.383 6.883.912 9.857l-39.625 47.713c-1.384 1.666-3.379 2.527-5.388 2.527zm205.582-6.814c-2.735 0-5.334-1.613-6.458-4.295-1.495-3.564.183-7.667 3.748-9.162L671 516.756c3.562-1.496 7.666.182 9.162 3.748 1.495 3.564-.183 7.667-3.748 9.162l-64.069 26.871c-.884.371-1.802.547-2.704.547zm-22.101 68.718c-.753 0-1.517-.122-2.269-.379l-72.323-24.759c-3.657-1.253-5.607-5.232-4.355-8.891 1.253-3.658 5.234-5.603 8.891-4.355l72.323 24.759c3.657 1.253 5.607 5.232 4.355 8.891-.994 2.906-3.713 4.734-6.622 4.734z"/><path fill="#002221" d="M531 386c-3.866 0-7-3.134-7-7V168c0-3.866 3.134-7 7-7s7 3.134 7 7v211c0 3.866-3.134 7-7 7z"/><circle cx="474.212" cy="168.291" r="24.54" fill="#699"/><path fill="#002221" d="M474.213 196.33c-15.461 0-28.041-12.579-28.041-28.04 0-15.461 12.58-28.04 28.041-28.04s28.039 12.579 28.039 28.04c0 15.461-12.578 28.04-28.039 28.04zm0-49.08c-11.603 0-21.041 9.438-21.041 21.04 0 11.601 9.438 21.04 21.041 21.04 11.601 0 21.039-9.438 21.039-21.04 0-11.601-9.439-21.04-21.039-21.04z"/><path fill="#fff" d="M469.032 170.542c2.78-3.63 4.508-8.283.569-11.388-1.797-1.321-5.117-.913-7.029.743-2.477 2.146-3.469 8.733-2.189 13.636 1.299 4.976 3.564 7.783 5.688 9.367 2.683 1.999 3.29.57 1.993-1.822-1.431-2.645-2.193-6.411.968-10.536z"/><circle cx="586.767" cy="168.291" r="24.54" fill="#699"/><path fill="#002221" d="M586.768 196.33c-15.462 0-28.041-12.579-28.041-28.04 0-15.461 12.579-28.04 28.041-28.04 15.461 0 28.039 12.579 28.039 28.04 0 15.461-12.578 28.04-28.039 28.04zm0-49.08c-11.603 0-21.041 9.438-21.041 21.04 0 11.601 9.438 21.04 21.041 21.04 11.601 0 21.039-9.438 21.039-21.04 0-11.601-9.439-21.04-21.039-21.04z"/><path fill="#fff" d="M581.59 170.542c2.777-3.63 4.505-8.283.566-11.388-1.797-1.321-5.115-.913-7.027.743-2.477 2.146-3.471 8.733-2.192 13.636 1.301 4.976 3.566 7.783 5.69 9.367 2.684 1.999 3.292.57 1.994-1.822-1.435-2.645-2.193-6.411.969-10.536z"/><circle cx="586.767" cy="237.718" r="24.54" fill="#699"/><path fill="#002221" d="M586.768 265.757c-15.462 0-28.041-12.578-28.041-28.039 0-15.462 12.579-28.042 28.041-28.042 15.461 0 28.039 12.58 28.039 28.042 0 15.461-12.578 28.039-28.039 28.039zm0-49.081c-11.603 0-21.041 9.439-21.041 21.042 0 11.601 9.438 21.039 21.041 21.039 11.601 0 21.039-9.438 21.039-21.039 0-11.603-9.439-21.042-21.039-21.042z"/><path fill="#fff" d="M581.59 239.968c2.777-3.629 4.505-8.283.566-11.388-1.797-1.321-5.115-.913-7.027.742-2.477 2.146-3.471 8.733-2.192 13.635 1.301 4.977 3.566 7.784 5.69 9.367 2.684 2 3.292.571 1.994-1.821-1.435-2.644-2.193-6.409.969-10.535z"/><circle cx="586.767" cy="307.144" r="24.54" fill="#699"/><path fill="#002221" d="M586.768 335.184c-15.462 0-28.041-12.579-28.041-28.04 0-15.461 12.579-28.04 28.041-28.04 15.461 0 28.039 12.579 28.039 28.04 0 15.461-12.578 28.04-28.039 28.04zm0-49.08c-11.603 0-21.041 9.438-21.041 21.04 0 11.601 9.438 21.04 21.041 21.04 11.601 0 21.039-9.438 21.039-21.04 0-11.602-9.439-21.04-21.039-21.04z"/><path fill="#fff" d="M581.59 309.395c2.777-3.63 4.505-8.282.566-11.387-1.797-1.322-5.115-.913-7.027.742-2.477 2.146-3.471 8.732-2.192 13.635 1.301 4.977 3.566 7.784 5.69 9.367 2.684 2 3.292.57 1.994-1.821-1.435-2.645-2.193-6.41.969-10.536z"/><circle cx="586.767" cy="376.571" r="24.54" fill="#699"/><path fill="#002221" d="M586.768 404.609c-15.462 0-28.041-12.578-28.041-28.039 0-15.461 12.579-28.041 28.041-28.041 15.461 0 28.039 12.579 28.039 28.041 0 15.461-12.578 28.039-28.039 28.039zm0-49.079c-11.603 0-21.041 9.439-21.041 21.041 0 11.601 9.438 21.039 21.041 21.039 11.601 0 21.039-9.438 21.039-21.039 0-11.602-9.439-21.041-21.039-21.041z"/><path fill="#fff" d="M581.59 378.822c2.777-3.629 4.505-8.283.566-11.388-1.797-1.321-5.115-.913-7.027.743-2.477 2.146-3.471 8.733-2.192 13.634 1.301 4.977 3.566 7.783 5.69 9.367 2.684 2 3.292.571 1.994-1.821-1.435-2.645-2.193-6.41.969-10.535z"/><circle cx="474.212" cy="237.718" r="24.54" fill="#699"/><path fill="#002221" d="M474.213 265.757c-15.461 0-28.041-12.578-28.041-28.039 0-15.462 12.58-28.042 28.041-28.042s28.039 12.58 28.039 28.042c0 15.461-12.578 28.039-28.039 28.039zm0-49.081c-11.603 0-21.041 9.439-21.041 21.042 0 11.601 9.438 21.039 21.041 21.039 11.601 0 21.039-9.438 21.039-21.039 0-11.603-9.439-21.042-21.039-21.042z"/><path fill="#fff" d="M469.032 239.968c2.78-3.629 4.508-8.283.569-11.388-1.797-1.321-5.117-.913-7.029.742-2.477 2.146-3.469 8.733-2.189 13.635 1.299 4.977 3.564 7.784 5.688 9.367 2.683 2 3.29.571 1.993-1.821-1.431-2.644-2.193-6.409.968-10.535z"/><circle cx="474.212" cy="307.144" r="24.54" fill="#699"/><path fill="#002221" d="M474.213 335.184c-15.461 0-28.041-12.579-28.041-28.04 0-15.461 12.58-28.04 28.041-28.04s28.039 12.579 28.039 28.04c0 15.461-12.578 28.04-28.039 28.04zm0-49.08c-11.603 0-21.041 9.438-21.041 21.04 0 11.601 9.438 21.04 21.041 21.04 11.601 0 21.039-9.438 21.039-21.04 0-11.602-9.439-21.04-21.039-21.04z"/><path fill="#fff" d="M469.032 309.395c2.78-3.63 4.508-8.282.569-11.387-1.797-1.322-5.117-.913-7.029.742-2.477 2.146-3.469 8.732-2.189 13.635 1.299 4.977 3.564 7.784 5.688 9.367 2.683 2 3.29.57 1.993-1.821-1.431-2.645-2.193-6.41.968-10.536z"/><circle cx="474.212" cy="376.571" r="24.54" fill="#699"/><path fill="#002221" d="M474.213 404.609c-15.461 0-28.041-12.578-28.041-28.039 0-15.461 12.58-28.041 28.041-28.041s28.039 12.579 28.039 28.041c0 15.461-12.578 28.039-28.039 28.039zm0-49.079c-11.603 0-21.041 9.439-21.041 21.041 0 11.601 9.438 21.039 21.041 21.039 11.601 0 21.039-9.438 21.039-21.039 0-11.602-9.439-21.041-21.039-21.041z"/><path fill="#fff" d="M469.032 378.822c2.78-3.629 4.508-8.283.569-11.388-1.797-1.321-5.117-.913-7.029.743-2.477 2.146-3.469 8.733-2.189 13.634 1.299 4.977 3.564 7.783 5.688 9.367 2.683 2 3.29.571 1.993-1.821-1.431-2.645-2.193-6.41.968-10.535zM318 353.038c0-11.619-9.42-21.038-21.039-21.038H117.039C105.42 332 96 341.419 96 353.038v83.924C96 448.581 105.42 458 117.039 458h179.922C308.58 458 318 448.581 318 436.962v-83.924z"/><path fill="#002221" d="M296.961 465H117.039C101.578 465 89 452.422 89 436.962v-83.924C89 337.578 101.578 325 117.039 325h179.922C312.422 325 325 337.578 325 353.038v83.924c0 15.46-12.578 28.038-28.039 28.038zM117.039 339c-7.741 0-14.039 6.297-14.039 14.038v83.924c0 7.74 6.298 14.038 14.039 14.038h179.922c7.741 0 14.039-6.298 14.039-14.038v-83.924c0-7.741-6.298-14.038-14.039-14.038H117.039zm142.923-121H154.038C138.578 218 126 205.422 126 189.961v-39.923c0-15.46 12.578-28.039 28.038-28.039h105.924c15.46 0 28.038 12.578 28.038 28.039v39.923C288 205.422 275.422 218 259.962 218zm-105.924-82c-7.74 0-14.038 6.298-14.038 14.039v39.923c0 7.741 6.298 14.039 14.038 14.039h105.924c7.74 0 14.038-6.298 14.038-14.039v-39.923c0-7.741-6.298-14.039-14.038-14.039H154.038z"/></svg>